<?xml version="1.0" standalone="no"?>
<!DOCTYPE svg PUBLIC "-//W3C//DTD SVG 20010904//EN"
 "http://www.w3.org/TR/2001/REC-SVG-20010904/DTD/svg10.dtd">
<svg version="1.0" xmlns="http://www.w3.org/2000/svg"
 width="1024.000000pt" height="1024.000000pt" viewBox="0 0 1024.000000 1024.000000"
 preserveAspectRatio="xMidYMid meet">

<g transform="translate(0.000000,1024.000000) scale(0.100000,-0.100000)"
fill="#000000" stroke="none">
<path d="M0 5120 l0 -5120 5120 0 5120 0 0 5120 0 5120 -5120 0 -5120 0 0
-5120z m7020 207 l0 -1643 28 -27 c15 -15 32 -27 38 -27 5 0 292 286 638 636
578 583 635 638 698 670 71 36 77 36 116 1 54 -49 10 -131 -172 -319 -76 -79
-361 -367 -633 -641 -272 -274 -493 -503 -491 -507 8 -23 605 -611 625 -616
12 -3 45 -1 73 5 177 38 374 -25 491 -157 78 -89 119 -187 126 -304 6 -94 -2
-118 -40 -118 -13 0 -67 46 -147 125 -70 69 -134 125 -142 125 -9 0 -67 -22
-130 -48 -126 -54 -115 -43 -182 -200 -20 -46 -36 -92 -36 -104 0 -14 44 -66
125 -148 69 -69 125 -133 125 -142 0 -34 -29 -48 -100 -48 -173 0 -341 105
-428 267 -57 109 -77 247 -51 361 7 27 9 60 6 74 -10 37 -522 556 -536 543 -6
-6 -16 -38 -21 -70 -6 -33 -13 -69 -15 -81 -6 -26 -56 -79 -591 -616 -318
-319 -448 -443 -482 -460 -39 -19 -63 -23 -137 -23 -106 0 -162 22 -225 91
-67 73 -84 117 -85 219 0 148 -17 126 563 713 l507 512 -2397 0 -2398 0 0
1800 0 1800 2640 0 2640 0 0 -1643z"/>
<path d="M1820 6500 l0 -380 378 2 377 3 3 378 2 377 -380 0 -380 0 0 -380z"/>
<path d="M2960 6500 l0 -380 375 0 375 0 0 190 0 190 1615 0 1615 0 0 190 0
190 -1990 0 -1990 0 0 -380z"/>
<path d="M3720 5935 l0 -185 1610 0 1610 0 0 185 0 185 -1610 0 -1610 0 0
-185z"/>
<path d="M1820 5365 l0 -375 380 0 380 0 0 375 0 375 -380 0 -380 0 0 -375z"/>
<path d="M2960 5365 l0 -375 1990 0 1990 0 0 185 0 185 -1612 2 -1613 3 -3
188 -2 187 -375 0 -375 0 0 -375z"/>
<path d="M1820 4415 l0 -185 1845 0 c1015 0 1845 2 1845 5 0 3 -7 22 -16 43
-9 20 -18 76 -21 125 -5 75 -3 90 12 107 10 11 25 20 33 20 8 0 72 -56 142
-125 93 -93 132 -125 150 -125 22 1 191 70 231 95 14 9 99 194 99 216 0 5
-838 9 -2160 9 l-2160 0 0 -185z"/>
<path d="M6481 4568 c12 -43 11 -191 -1 -245 -6 -27 -6 -51 0 -68 l10 -25 225
0 225 0 0 185 0 185 -234 0 -235 0 10 -32z"/>
<path d="M1820 3660 l0 -190 2417 0 2418 0 -190 190 -190 190 -2227 0 -2228 0
0 -190z"/>
<path d="M6900 3815 c19 -19 35 -35 37 -35 2 0 3 16 3 35 0 34 -1 35 -37 35
l-37 0 34 -35z"/>
<path d="M6634 3158 c-28 -17 -926 -924 -941 -952 -51 -88 55 -195 142 -143
41 24 930 929 943 960 18 41 2 98 -34 122 -34 22 -84 28 -110 13z"/>
</g>
</svg>
